<?xml version="1.0" encoding="UTF-8"?>
<svg id="Calque_1" data-name="Calque 1" xmlns="http://www.w3.org/2000/svg" viewBox="0 0 900 900">
  <defs>
    <style>
      .cls-1 {
        fill: #fff;
        fill-rule: evenodd;
      }

      .cls-2 {
        fill: #010101;
      }
    </style>
  </defs>
  <circle class="cls-2" cx="455.58" cy="450.19" r="346.97"/>
  <path class="cls-1" d="M744.98,641.19c-26.33-85.05-100.87-148.92-191.69-159.67,37.06-29.03,60.91-74.24,60.91-124.97,0-87.61-71.01-158.63-158.63-158.63s-158.62,71.01-158.62,158.63c0,50.73,23.85,95.94,60.91,124.97-90.6,10.72-165,74.31-191.5,159.06-.1.31-.18.62-.28.92,8.42,12.71,17.65,24.84,27.63,36.31,14.93-92.23,94.92-162.64,191.36-162.64h141.01c96.32,0,176.23,70.24,191.31,162.3.02.11.03.23.05.34,9.97-11.46,19.2-23.58,27.62-36.29-.03-.11-.05-.23-.08-.33ZM455.58,479.91c-68.12,0-123.38-55.23-123.38-123.36s55.25-123.38,123.38-123.38,123.38,55.23,123.38,123.38-55.25,123.36-123.38,123.36Z"/>
</svg>