<?xml version="1.0" encoding="UTF-8"?>
<svg id="Calque_1" data-name="Calque 1" xmlns="http://www.w3.org/2000/svg" viewBox="0 0 900 900">
  <defs>
    <style>
      .cls-1 {
        fill-rule: evenodd;
      }

      .cls-1, .cls-2 {
        fill: #1d1d1b;
      }

      .cls-3 {
        fill: #fff;
      }
    </style>
  </defs>
  <circle class="cls-2" cx="429.49" cy="428.32" r="337.6"/>
  <circle class="cls-3" cx="429.49" cy="428.32" r="301.52"/>
  <path class="cls-1" d="M679.04,595.74c-22.88-73.91-87.66-129.42-166.58-138.75,32.21-25.23,52.93-64.51,52.93-108.6,0-76.13-61.71-137.85-137.85-137.85s-137.85,61.71-137.85,137.85c0,44.09,20.72,83.37,52.93,108.6-78.73,9.32-143.39,64.58-166.42,138.23-.08.27-.16.54-.24.8,7.32,11.05,15.34,21.59,24.01,31.55,12.98-80.15,82.49-141.34,166.3-141.34h122.54c83.71,0,153.15,61.04,166.25,141.04.02.1.03.2.05.3,8.67-9.96,16.69-20.49,24-31.54-.03-.09-.05-.2-.07-.29ZM427.54,455.58c-59.2,0-107.22-48-107.22-107.2s48.02-107.22,107.22-107.22,107.22,47.99,107.22,107.22-48.02,107.2-107.22,107.2Z"/>
  <g>
    <g>
      <circle class="cls-2" cx="654.57" cy="655.74" r="153.54"/>
      <circle class="cls-3" cx="654.57" cy="655.74" r="119.09"/>
    </g>
    <path class="cls-2" d="M711.21,638.26h-39.77v-39.77c0-9.64-7.83-17.48-17.48-17.48s-17.48,7.83-17.48,17.48v39.77h-39.17c-9.64,0-17.48,7.83-17.48,17.48s7.83,17.48,17.48,17.48h39.77v39.77c0,9.64,7.83,17.48,17.48,17.48s17.48-7.83,17.48-17.48v-39.77h39.77c9.64,0,17.48-7.83,17.48-17.48s-8.44-17.48-18.08-17.48Z"/>
  </g>
</svg>