<?xml version="1.0" encoding="UTF-8"?>
<svg id="Calque_1" data-name="Calque 1" xmlns="http://www.w3.org/2000/svg" viewBox="0 0 900 900">
  <defs>
    <style>
      .cls-1 {
        fill: #010101;
      }
    </style>
  </defs>
  <path class="cls-1" d="M507.95,443.37l-33.39,27.75v-192.99c0-13.56-10.99-24.55-24.55-24.55s-24.55,10.99-24.55,24.55v192.99l-33.39-27.75c-10.44-8.68-25.94-7.25-34.62,3.19-8.68,10.44-7.25,25.94,3.19,34.62h0l73.66,61.38c9.1,7.58,22.32,7.58,31.43,0l73.66-61.38c10.44-8.68,11.87-24.18,3.19-34.62-8.68-10.44-24.18-11.87-34.62-3.19Z"/>
  <path class="cls-1" d="M572.77,720.09h-245.54c-13.56,0-24.55,10.99-24.55,24.55s10.99,24.55,24.55,24.55h245.54c13.56,0,24.55-10.99,24.55-24.55s-10.99-24.55-24.55-24.55Z"/>
  <path class="cls-1" d="M669.51,304.64c-12.52-97.72-106.32-173.84-219.51-173.84s-206.99,76.12-219.51,173.84c-77.34,13.5-124.24,94.53-124.24,169.91,0,108.28,98.21,196.43,220.98,196.43h245.54c122.77,0,220.98-88.15,220.98-196.43,0-75.38-46.9-156.41-124.24-169.91ZM572.77,621.87h-245.54c-94.78,0-171.87-66.05-171.87-147.32,0-59.17,39.53-122.77,98.21-122.77,13.56,0,24.55-10.99,24.55-24.55,0-81.27,77.1-147.32,171.87-147.32s171.87,66.05,171.87,147.32c0,13.56,10.99,24.55,24.55,24.55,58.68,0,98.21,63.59,98.21,122.77,0,81.27-77.1,147.32-171.87,147.32Z"/>
</svg>