<?xml version="1.0" encoding="UTF-8"?>
<svg id="Calque_1" data-name="Calque 1" xmlns="http://www.w3.org/2000/svg" viewBox="0 0 900 900">
  <defs>
    <style>
      .cls-1 {
        fill: #010101;
      }
    </style>
  </defs>
  <path class="cls-1" d="M250.55,450c0-52.37,1.65-90.54,6.75-119.04,5.01-28.19,12.73-42.9,21.74-51.92,9.02-9.02,23.73-16.74,51.92-21.74,28.5-5.1,66.67-6.75,119.04-6.75,20.02,0,36.26-16.24,36.26-36.26s-16.24-36.26-36.26-36.26c-52.6,0-96.4,1.56-131.76,7.86-35.7,6.37-66.82,18.23-90.47,41.88-23.66,23.66-35.51,54.77-41.88,90.47-6.3,35.37-7.86,79.16-7.86,131.76s1.56,94.53,7.89,129.69c6.35,35.46,18.2,66.53,41.62,90.4,23.44,23.92,54.4,36.38,90.26,43.23,35.53,6.78,79.42,8.66,132.21,8.66s95.33-1.89,130.7-8.66c35.72-6.85,66.62-19.31,90.24-43.04,23.61-23.73,35.89-54.68,42.59-90.28,6.66-35.25,8.45-78.47,8.45-129.99,0-20.02-16.24-36.26-36.26-36.26s-36.26,16.24-36.26,36.26c0,50.95-1.89,88.39-7.18,116.56-5.24,27.79-13.22,42.97-22.76,52.55-9.51,9.59-24.65,17.64-52.46,22.97-28.19,5.41-65.8,7.37-117.05,7.37s-90.26-1.96-118.61-7.37c-28-5.36-42.87-13.39-52.08-22.78-9.28-9.44-17-24.51-22.03-52.44-5.08-28.26-6.73-65.8-6.73-116.87h0Z"/>
  <path class="cls-1" d="M585.63,228.87l85.49,85.47,38.46-38.46c16.53-16.53,16.53-43.3,0-59.83l-25.64-25.64c-16.53-16.53-43.32-16.53-59.85,0l-38.46,38.46Z"/>
  <path class="cls-1" d="M404.7,568.35c9.25-1.2,17.85-5.43,24.46-12.02l212.06-212.06-85.49-85.49-212.06,212.06c-6.59,6.61-10.84,15.2-12.04,24.46l-6.89,52.86c-2.05,15.72,11.36,29.13,27.1,27.08l52.86-6.89Z"/>
</svg>