<?xml version="1.0" encoding="UTF-8"?>
<svg id="Calque_1" data-name="Calque 1" xmlns="http://www.w3.org/2000/svg" viewBox="0 0 900 900">
  <defs>
    <style>
      .cls-1 {
        fill: #010101;
      }
    </style>
  </defs>
  <path class="cls-1" d="M601.18,426.54V167.37c0-38.73-32.02-70.75-70.75-70.75H201.25c-39.47,0-70.75,32.02-70.75,70.75v393.23c0,39.47,32.02,70.75,70.75,70.75h189.91c8.94,96.07,90.11,172.04,188.42,172.04,104.26,0,189.91-84.9,189.91-189.91,0-96.07-73.73-176.51-168.31-186.93ZM263.81,213.54h204.06c13.41,0,23.83,10.43,23.83,23.83s-10.43,23.83-23.83,23.83h-204.06c-12.66,0-23.83-10.43-23.83-23.83,0-12.66,10.43-23.83,23.83-23.83ZM263.81,340.89h204.06c13.41,0,23.83,10.43,23.83,23.83,0,12.66-10.43,23.83-23.83,23.83h-204.06c-12.66,0-23.83-10.43-23.83-23.83s10.43-23.83,23.83-23.83ZM365.84,514.42h-102.03c-12.66,0-23.83-10.43-23.83-23.83,0-12.66,10.43-23.83,23.83-23.83h102.03c13.41,0,23.83,10.43,23.83,23.83-.74,13.41-11.17,23.83-23.83,23.83ZM580.33,761.68c-81.18,0-146.72-66.28-146.72-146.72s65.54-146.72,146.72-146.72,146.72,66.28,146.72,146.72-66.28,146.72-146.72,146.72Z"/>
  <path class="cls-1" d="M650.34,593.36h-49.15v-49.15c0-11.92-9.68-21.6-21.6-21.6s-21.6,9.68-21.6,21.6v49.15h-48.41c-11.92,0-21.6,9.68-21.6,21.6s9.68,21.6,21.6,21.6h49.15v49.15c0,11.92,9.68,21.6,21.6,21.6s21.6-9.68,21.6-21.6v-49.15h49.15c11.92,0,21.6-9.68,21.6-21.6s-10.43-21.6-22.34-21.6Z"/>
</svg>