<?xml version="1.0" encoding="UTF-8"?>
<svg id="Calque_1" data-name="Calque 1" xmlns="http://www.w3.org/2000/svg" viewBox="0 0 2175.11 900">
  <defs>
    <style>
      .cls-1 {
        fill: #1d1d1b;
      }

      .cls-2 {
        fill: #fff;
      }
    </style>
  </defs>
  <path class="cls-1" d="M148.69,249.46h1775.25c56.56,0,102.49,45.92,102.49,102.49v298.58H243.12c-52.12,0-94.43-42.31-94.43-94.43V249.46h0Z"/>
  <g>
    <path class="cls-2" d="M431.64,373.44c1.53-2.76,3.1-4.71,4.71-5.86s3.64-1.72,6.09-1.72c3.75,0,6.41,1,7.98,2.99,1.57,1.99,2.35,5.4,2.35,10.22l.23,29.86c0,5.28-.86,8.84-2.58,10.68s-4.84,2.76-9.36,2.76c-3.22,0-5.69-.77-7.41-2.3-1.72-1.54-3.2-4.38-4.42-8.53-1.99-7.3-5.17-12.55-9.53-15.74-4.36-3.19-10.42-4.79-18.15-4.79-11.79,0-20.83,3.99-27.11,11.96-6.28,7.98-9.42,19.51-9.42,34.62s3.18,26.57,9.53,34.62c6.36,8.05,15.43,12.07,27.22,12.07,8.04,0,16.9-2.68,26.59-8.04,9.69-5.36,15.79-8.04,18.32-8.04,2.99,0,5.49,1.26,7.52,3.79,2.03,2.53,3.04,5.67,3.04,9.42,0,6.74-5.94,13.09-17.8,19.07-11.87,5.97-25.23,8.96-40.09,8.96-20.06,0-36.3-6.62-48.7-19.87-12.41-13.25-18.61-30.55-18.61-51.92s6.28-37.71,18.84-51.34c12.56-13.63,28.49-20.45,47.78-20.45,5.44,0,10.8.61,16.08,1.84,5.28,1.23,10.91,3.14,16.89,5.74Z"/>
    <path class="cls-2" d="M511.15,369.65h22.63c.92,0,1.68.21,2.3.63.61.42.92.94.92,1.55,0,.54-.06,1.03-.17,1.49s-.29.88-.52,1.26l-28.26,54.79c-.61,1.15-1.28,1.99-2.01,2.53-.73.54-1.55.8-2.47.8-.46,0-.82-.02-1.09-.06-.27-.04-.52-.1-.75-.17l-7.24-2.64c-1.07-.31-1.9-.78-2.47-1.44-.57-.65-.86-1.4-.86-2.24,0-.77.02-1.28.06-1.55.04-.27.1-.55.17-.86l13.44-48.7c.69-2.37,1.44-3.87,2.24-4.48.8-.61,2.16-.92,4.08-.92Z"/>
    <path class="cls-2" d="M599.62,459.59c1.99,8.5,5.84,14.86,11.54,19.07,5.7,4.21,13.3,6.32,22.8,6.32s18.88-2.32,28.14-6.95c9.26-4.63,14.86-6.95,16.77-6.95,2.83,0,5.15,1.05,6.95,3.16,1.8,2.11,2.7,4.81,2.7,8.1,0,7.2-5.32,13.4-15.97,18.61-10.64,5.21-23.82,7.81-39.51,7.81-18.53,0-33.6-5.21-45.2-15.62-11.6-10.41-17.4-23.82-17.4-40.2s5.8-29.67,17.4-40.09c11.6-10.41,26.67-15.62,45.2-15.62,16.54,0,30.25,4.88,41.12,14.65,10.87,9.76,16.31,21.73,16.31,35.9,0,4.52-1.09,7.62-3.27,9.3-2.18,1.69-6.68,2.53-13.5,2.53h-74.09ZM661.53,441.67c-1.3-7.12-4.65-12.64-10.05-16.54s-12.43-5.86-21.08-5.86-15.07,1.86-20.16,5.57c-5.09,3.71-8.63,9.32-10.63,16.83h61.91Z"/>
    <path class="cls-2" d="M741.71,504.27c-1.99,1.53-4.04,2.7-6.15,3.5-2.11.8-4.27,1.21-6.49,1.21-3.29,0-5.61-.88-6.95-2.64-1.34-1.76-2.01-5.05-2.01-9.88v-15.28c0-5.05.84-8.63,2.53-10.74,1.68-2.11,4.59-3.16,8.73-3.16,4.52,0,8.19,2.18,11.03,6.55,1.68,2.37,3.1,4.14,4.25,5.28,3.75,3.37,8.12,5.9,13.09,7.58,4.98,1.69,10.64,2.53,17,2.53,5.51,0,9.92-1.07,13.21-3.22,3.29-2.14,4.94-4.94,4.94-8.39,0-6.2-8.84-10.49-26.53-12.86-3.91-.46-6.97-.88-9.19-1.26-13.32-1.84-23.24-5.46-29.75-10.85-6.51-5.4-9.76-12.65-9.76-21.77,0-10.8,3.91-19.14,11.72-25.04,7.81-5.9,18.95-8.84,33.43-8.84,4.98,0,10.09.4,15.33,1.21,5.24.8,10.63,2.05,16.14,3.73,1.61-1.91,3.31-3.33,5.11-4.25,1.8-.92,3.81-1.38,6.03-1.38,3.14,0,5.53.98,7.18,2.93,1.65,1.95,2.47,4.88,2.47,8.79v14.13c0,3.29-.84,5.84-2.53,7.64-1.69,1.8-4.06,2.7-7.12,2.7s-8.52-2.74-16.14-8.21c-7.62-5.47-15.26-8.21-22.92-8.21-5.97,0-10.61.98-13.9,2.93-3.29,1.95-4.94,4.65-4.94,8.1,0,5.36,6.89,8.96,20.68,10.8,3.98.46,7.12.84,9.42,1.15,17.31,2.53,29.19,6.3,35.67,11.31,6.47,5.02,9.71,12.46,9.71,22.34,0,11.56-4.27,20.5-12.81,26.82-8.54,6.32-20.66,9.48-36.35,9.48-6.13,0-12.02-.4-17.69-1.21-5.67-.8-11.14-1.97-16.43-3.5Z"/>
    <path class="cls-2" d="M905.28,406.18h35.03c5.28,0,9.03.96,11.26,2.87,2.22,1.91,3.33,5.09,3.33,9.53s-1.13,7.77-3.39,9.76c-2.26,1.99-5.99,2.99-11.2,2.99h-35.03v29.41c0,8.27,1.26,13.94,3.79,17,2.53,3.06,6.97,4.59,13.32,4.59,5.97,0,13.02-1.72,21.14-5.17,8.12-3.45,13.55-5.17,16.31-5.17,3.14,0,5.84,1.25,8.1,3.73,2.26,2.49,3.39,5.5,3.39,9.02,0,5.9-5.34,11.28-16.02,16.14-10.68,4.86-22.8,7.29-36.35,7.29-7.89,0-14.82-1.07-20.79-3.22-5.97-2.14-10.68-5.21-14.13-9.19-2.53-3.06-4.33-6.74-5.4-11.03-1.07-4.29-1.61-11.45-1.61-21.48v-31.93h-10.8c-5.21,0-8.9-.99-11.08-2.99-2.18-1.99-3.27-5.24-3.27-9.76s1.07-7.71,3.22-9.59c2.14-1.88,5.86-2.81,11.14-2.81h10.8v-26.88c0-5.28,1.09-9,3.27-11.14,2.18-2.14,5.8-3.22,10.85-3.22s8.67,1.07,10.85,3.22c2.18,2.14,3.27,5.86,3.27,11.14v26.88Z"/>
    <path class="cls-2" d="M1091.38,495.08v31.24h14.59c5.21,0,8.94.99,11.2,2.99,2.26,1.99,3.39,5.24,3.39,9.76s-1.11,7.62-3.33,9.53c-2.22,1.91-5.97,2.87-11.26,2.87h-48.7c-5.28,0-9-.94-11.14-2.81-2.14-1.88-3.22-5.07-3.22-9.59s1.09-7.77,3.27-9.76c2.18-1.99,5.88-2.99,11.08-2.99h6.78v-101.43h-1.84c-4.06,0-7.16-1.07-9.3-3.22-2.14-2.14-3.22-5.28-3.22-9.42,0-4.52,1.07-7.73,3.22-9.65,2.14-1.91,5.86-2.87,11.14-2.87h17.69c2.22,0,3.87.4,4.94,1.21,1.07.8,1.61,1.97,1.61,3.5v8.27c3.91-5.21,8.63-9.13,14.19-11.77,5.55-2.64,11.81-3.96,18.78-3.96,15.7,0,28.72,5.02,39.05,15.05,10.34,10.03,15.51,22.67,15.51,37.91s-5.02,29.12-15.05,39.57c-10.03,10.45-22.67,15.68-37.91,15.68-6.2,0-12-.86-17.4-2.58s-10.09-4.23-14.07-7.52ZM1117.92,421.46c-7.58,0-13.82,2.8-18.72,8.39-4.9,5.59-7.35,12.75-7.35,21.48s2.45,15.89,7.35,21.48c4.9,5.59,11.14,8.39,18.72,8.39s13.84-2.81,18.78-8.44,7.41-12.77,7.41-21.42-2.45-15.89-7.35-21.48c-4.9-5.59-11.18-8.39-18.84-8.39Z"/>
    <path class="cls-2" d="M1249.21,443.51v37.22h27.11c5.21,0,8.9.96,11.08,2.87,2.18,1.91,3.27,5.09,3.27,9.53s-1.09,7.77-3.27,9.76c-2.18,1.99-5.88,2.99-11.08,2.99h-64.21c-5.28,0-9.04-.99-11.26-2.99-2.22-1.99-3.33-5.24-3.33-9.76s1.1-7.62,3.29-9.53c2.19-1.91,5.98-2.87,11.37-2.87h8.77v-55.82h-4.97c-5.24,0-8.96-.98-11.15-2.93-2.2-1.95-3.29-5.19-3.29-9.71s1.05-7.73,3.16-9.65c2.11-1.91,5.84-2.87,11.2-2.87h24.47c2.07,0,3.68.44,4.82,1.32,1.15.88,1.72,2.09,1.72,3.62v17c8.35-8.96,16.14-15.35,23.38-19.18,7.24-3.83,15.03-5.74,23.38-5.74,7.58,0,13.59,1.7,18.03,5.11,4.44,3.41,6.66,7.98,6.66,13.73,0,4.44-1.53,8.1-4.59,10.97-3.06,2.87-7.01,4.31-11.83,4.31-3.45,0-7.52-1.26-12.23-3.79s-7.98-3.79-9.82-3.79c-3.68,0-8,1.65-12.98,4.94-4.98,3.29-10.87,8.39-17.69,15.28Z"/>
    <path class="cls-2" d="M1364.3,459.59c1.99,8.5,5.84,14.86,11.54,19.07,5.7,4.21,13.3,6.32,22.8,6.32s18.88-2.32,28.14-6.95c9.26-4.63,14.86-6.95,16.77-6.95,2.83,0,5.15,1.05,6.95,3.16,1.8,2.11,2.7,4.81,2.7,8.1,0,7.2-5.32,13.4-15.97,18.61-10.64,5.21-23.82,7.81-39.51,7.81-18.53,0-33.6-5.21-45.2-15.62-11.6-10.41-17.4-23.82-17.4-40.2s5.8-29.67,17.4-40.09c11.6-10.41,26.67-15.62,45.2-15.62,16.54,0,30.25,4.88,41.12,14.65,10.87,9.76,16.31,21.73,16.31,35.9,0,4.52-1.09,7.62-3.27,9.3-2.18,1.69-6.68,2.53-13.5,2.53h-74.09ZM1426.21,441.67c-1.3-7.12-4.65-12.64-10.05-16.54s-12.43-5.86-21.08-5.86-15.07,1.86-20.16,5.57c-5.09,3.71-8.63,9.32-10.63,16.83h61.91ZM1377.17,389.87l-4.02-8.84,54.91-32.05c.23-.15.52-.27.86-.34.34-.08.67-.11.98-.11.99,0,1.97.31,2.93.92.96.61,1.7,1.49,2.24,2.64l4.71,9.88c0,.08.08.23.23.46.15.54.23,1,.23,1.38,0,1.07-.27,2.03-.8,2.87-.54.84-1.3,1.46-2.3,1.84l-59.96,21.36Z"/>
    <path class="cls-2" d="M1516.5,424.9l20.68,48.93,21.71-48.93h-1.84c-4.14,0-7.29-1.07-9.48-3.22-2.18-2.14-3.27-5.28-3.27-9.42,0-4.52,1.09-7.73,3.27-9.65,2.18-1.91,5.95-2.87,11.31-2.87h26.99c5.36,0,9.13.98,11.31,2.93s3.27,5.15,3.27,9.59c0,4.14-1.07,7.28-3.22,9.42-2.14,2.14-5.28,3.22-9.42,3.22h-1.95l-34.11,72.48c-2.53,5.21-4.81,8.4-6.83,9.59-2.03,1.19-5.15,1.78-9.36,1.78-7.66,0-12.83-3.22-15.51-9.65-.31-.77-.54-1.34-.69-1.72l-32.05-72.48h-1.84c-4.14,0-7.29-1.07-9.48-3.22-2.18-2.14-3.27-5.28-3.27-9.42,0-4.52,1.11-7.73,3.33-9.65,2.22-1.91,5.97-2.87,11.26-2.87h29.18c5.28,0,9.03.98,11.26,2.93,2.22,1.95,3.33,5.15,3.33,9.59,0,4.14-1.09,7.28-3.27,9.42-2.18,2.14-5.3,3.22-9.36,3.22h-1.95Z"/>
    <path class="cls-2" d="M1696.03,424.9h-1.84c-4.14,0-7.26-1.07-9.36-3.22-2.11-2.14-3.16-5.28-3.16-9.42,0-4.52,1.07-7.73,3.22-9.65,2.14-1.91,5.86-2.87,11.14-2.87h21.71c2.07,0,3.68.44,4.82,1.32,1.15.88,1.72,2.09,1.72,3.62v76.04h1.84c4.14,0,7.29,1.07,9.48,3.22,2.18,2.14,3.27,5.21,3.27,9.19,0,4.59-1.11,7.87-3.33,9.82-2.22,1.95-5.97,2.93-11.26,2.93h-19.3c-2.14,0-3.81-.46-5-1.38-1.19-.92-1.78-2.18-1.78-3.79v-8.73c-3.68,5.51-8.18,9.65-13.5,12.41-5.32,2.76-11.58,4.14-18.78,4.14-12.33,0-21.48-3.71-27.45-11.14-5.97-7.43-8.96-18.8-8.96-34.11v-38.36h-1.95c-4.14,0-7.28-1.07-9.42-3.22-2.14-2.14-3.22-5.28-3.22-9.42,0-4.52,1.09-7.73,3.27-9.65,2.18-1.91,5.95-2.87,11.31-2.87h21.59c2.07,0,3.64.44,4.71,1.32,1.07.88,1.61,2.09,1.61,3.62v53.41c0,9.42,1.3,16.04,3.91,19.87,2.6,3.83,6.89,5.74,12.86,5.74,6.36,0,11.58-2.35,15.68-7.06,4.1-4.71,6.15-10.89,6.15-18.55v-33.2Z"/>
    <path class="cls-2" d="M1819.05,464.3c7.2,0,13,1.99,17.4,5.97,4.4,3.98,6.6,9.19,6.6,15.62s-2.2,11.54-6.6,15.56c-4.4,4.02-10.21,6.03-17.4,6.03s-12.79-2.01-17.23-6.03c-4.44-4.02-6.66-9.21-6.66-15.56s2.22-11.54,6.66-15.56c4.44-4.02,10.18-6.03,17.23-6.03Z"/>
  </g>
</svg>