<?xml version="1.0" encoding="UTF-8"?>
<svg id="Calque_1" data-name="Calque 1" xmlns="http://www.w3.org/2000/svg" viewBox="0 0 900 900">
  <defs>
    <style>
      .cls-1 {
        fill: #010101;
      }
    </style>
  </defs>
  <path class="cls-1" d="M416.74,409.18V143.45c0-18.48,15.12-33.59,33.59-33.59s33.59,15.12,33.59,33.59v265.73c0,18.48-15.12,33.59-33.59,33.59s-33.59-15.12-33.59-33.59ZM661.31,196.54c-14.45-11.76-35.61-9.41-47.37,4.7-11.76,14.45-9.74,35.61,4.7,47.37,62.48,51.06,98.43,126.31,98.43,206.94,0,147.15-119.93,267.07-267.07,267.07s-267.07-119.93-267.07-267.07c0-73.91,29.56-142.44,82.98-193.5,13.44-12.77,14.11-33.93,1.01-47.37-12.77-13.44-33.93-14.11-47.37-1.01-66.85,63.83-103.8,149.83-103.8,242.21,0,184.43,149.83,334.26,334.26,334.26s334.26-149.83,334.26-334.26c0-100.78-45.02-195.18-123.29-259.01l.34-.33Z"/>
</svg>