<?xml version="1.0" encoding="UTF-8"?>
<svg id="Calque_1" data-name="Calque 1" xmlns="http://www.w3.org/2000/svg" viewBox="0 0 900 900">
  <defs>
    <style>
      .cls-1 {
        fill: #010101;
      }
    </style>
  </defs>
  <path class="cls-1" d="M205.18,234.85c-36.61,0-66.77,30.16-66.77,66.77v296.75c0,36.6,30.16,66.77,66.77,66.77h489.64c36.61,0,66.77-30.17,66.77-66.77v-296.75c0-36.6-30.16-66.77-66.77-66.77H205.18ZM210.05,279.37h480.14l-226.51,202.16c-8.63,7.71-18.24,7.72-26.89,0l-226.74-202.16ZM182.92,314.84l152.55,136.09-152.55,146.52v-282.61ZM717.08,314.84v282.38l-152.09-146.52,152.09-135.86ZM531.61,480.6l145.36,140.03H223.03l145.83-139.8,38.25,34.08c24.32,21.68,61.93,21.72,86.24,0l38.25-34.31Z"/>
</svg>