<?xml version="1.0" encoding="UTF-8"?>
<svg id="Calque_1" data-name="Calque 1" xmlns="http://www.w3.org/2000/svg" viewBox="0 0 900 900">
  <defs>
    <style>
      .cls-1 {
        fill: #010101;
        fill-rule: evenodd;
      }
    </style>
  </defs>
  <path class="cls-1" d="M418.5,418.5h-94.64c-17,0-31.35,14.1-31.35,31.5s14.04,31.5,31.35,31.5h94.64v94.64c0,17,14.1,31.35,31.5,31.35s31.5-14.04,31.5-31.35v-94.64h94.64c17,0,31.35-14.1,31.35-31.5s-14.04-31.5-31.35-31.5h-94.64v-94.64c0-17-14.1-31.35-31.5-31.35s-31.5,14.04-31.5,31.35v94.64ZM450,765c-173.97,0-315-141.03-315-315S276.03,135,450,135s315,141.03,315,315-141.03,315-315,315Z"/>
</svg>