<?xml version="1.0" encoding="UTF-8"?>
<svg id="Calque_1" data-name="Calque 1" xmlns="http://www.w3.org/2000/svg" viewBox="0 0 900 900">
  <defs>
    <style>
      .cls-1 {
        fill: #010101;
      }
    </style>
  </defs>
  <path class="cls-1" d="M237.21,173.37v553.26c0,16.92,6.72,33.18,18.69,45.15,11.97,11.97,28.23,18.69,45.15,18.69h297.91c16.92,0,33.18-6.72,45.15-18.69,11.97-11.97,18.69-28.23,18.69-45.15V173.37c0-16.92-6.72-33.18-18.69-45.15-11.97-11.97-28.23-18.69-45.15-18.69h-297.91c-16.92,0-33.18,6.72-45.15,18.69-11.97,11.97-18.69,28.23-18.69,45.15ZM418.08,152.09h63.84c5.89,0,10.64,4.75,10.64,10.64s-4.75,10.64-10.64,10.64h-63.84c-5.89,0-10.64-4.75-10.64-10.64s4.75-10.64,10.64-10.64ZM545.76,152.09c5.89,0,10.64,4.75,10.64,10.64s-4.75,10.64-10.64,10.64-10.64-4.75-10.64-10.64,4.75-10.64,10.64-10.64ZM279.77,215.93h340.47v446.86h-340.47V215.93ZM450,694.71c17.62,0,31.92,14.3,31.92,31.92s-14.3,31.92-31.92,31.92-31.92-14.3-31.92-31.92,14.3-31.92,31.92-31.92Z"/>
</svg>