<?xml version="1.0" encoding="UTF-8"?>
<svg id="Calque_1" data-name="Calque 1" xmlns="http://www.w3.org/2000/svg" viewBox="0 0 900 900">
  <defs>
    <style>
      .cls-1 {
        fill: #010101;
      }
    </style>
  </defs>
  <path class="cls-1" d="M450,105.37c-189.9,0-344.63,154.73-344.63,344.63s154.73,344.63,344.63,344.63,344.63-154.73,344.63-344.63S639.9,105.37,450,105.37ZM450,736.95c-158.25,0-286.95-128-286.95-286.25S291.75,163.75,450,163.75s286.95,128.71,286.95,286.95-128.71,286.25-286.95,286.25Z"/>
  <path class="cls-1" d="M429.6,304.41c-64.71,0-116.75,52.75-116.75,116.75s52.75,116.75,116.75,116.75c19.69,0,39.39-4.92,56.27-14.77l3.52-2.11.7.7,46.42,46.42c4.22,4.22,10.55,7.03,16.88,7.03h0c6.33,0,12.66-2.81,16.88-7.03,4.92-4.92,7.03-10.55,7.03-16.88s-2.81-12.66-7.03-16.88l-45.72-45.72,2.11-3.52c12.66-18.99,18.99-41.5,18.99-64,1.41-64.71-51.34-116.75-116.05-116.75ZM429.6,495.01c-40.79,0-73.85-33.06-73.85-73.85s33.06-73.85,73.85-73.85,73.85,33.06,73.85,73.85-33.06,73.85-73.85,73.85Z"/>
</svg>