<?xml version="1.0" encoding="UTF-8"?>
<svg id="Calque_1" data-name="Calque 1" xmlns="http://www.w3.org/2000/svg" viewBox="0 0 900 900">
  <defs>
    <style>
      .cls-1 {
        fill: #010101;
      }
    </style>
  </defs>
  <path class="cls-1" d="M705.64,229.83H194.36c-3.84,0-6.97,3.1-6.97,6.97s3.13,6.97,6.97,6.97h511.28c3.84,0,6.97-3.1,6.97-6.97s-3.13-6.97-6.97-6.97Z"/>
  <path class="cls-1" d="M223.92,669.52c0,55.67,45.38,101.05,101.05,101.05h250.04c55.75,0,101.05-45.38,101.05-101.05l.03-411.79H223.92v411.79ZM542.17,385.4c0-3.87,3.13-6.97,6.97-6.97s6.97,3.1,6.97,6.97v229.56c0,3.87-3.13,6.97-6.97,6.97s-6.97-3.1-6.97-6.97v-229.56ZM443.03,385.4c0-3.87,3.13-6.97,6.97-6.97s6.97,3.1,6.97,6.97v229.56c0,3.87-3.13,6.97-6.97,6.97s-6.97-3.1-6.97-6.97v-229.56ZM343.88,385.4c0-3.87,3.13-6.97,6.97-6.97s6.97,3.1,6.97,6.97v229.56c0,3.87-3.13,6.97-6.97,6.97s-6.97-3.1-6.97-6.97v-229.56Z"/>
  <path class="cls-1" d="M257.13,196.67h385.74c3.84,0,6.97-3.1,6.97-6.97s-3.13-6.97-6.97-6.97h-144.17v-13.45c0-21.97-17.86-39.85-39.83-39.85h-17.72c-21.97,0-39.85,17.88-39.85,39.85v13.47l-144.17-.03c-3.84,0-6.97,3.1-6.97,6.97s3.13,6.97,6.97,6.97h0Z"/>
</svg>