<?xml version="1.0" encoding="UTF-8"?>
<svg id="Calque_1" data-name="Calque 1" xmlns="http://www.w3.org/2000/svg" viewBox="0 0 900 900">
  <defs>
    <style>
      .cls-1 {
        fill: #010101;
      }
    </style>
  </defs>
  <path class="cls-1" d="M572.14,413.46c8.35,8.35,8.35,21.91,0,30.26-4.17,4.17-9.66,6.26-15.14,6.26s-10.94-2.09-15.14-6.26l-70.47-70.47v205.17c0,11.83-9.58,21.4-21.4,21.4s-21.4-9.58-21.4-21.4v-205.17l-70.47,70.47c-8.35,8.35-21.91,8.35-30.26,0s-8.35-21.91,0-30.26l107.01-107.01c8.35-8.35,21.91-8.35,30.26,0l107.01,107.01Z"/>
  <path class="cls-1" d="M450,105.37c-189.9,0-344.63,154.73-344.63,344.63s154.73,344.63,344.63,344.63,344.63-154.73,344.63-344.63S639.9,105.37,450,105.37ZM450,736.95c-158.25,0-286.95-128-286.95-286.25S291.75,163.75,450,163.75s286.95,128.71,286.95,286.95-128.71,286.25-286.95,286.25Z"/>
</svg>